<svg xmlns="http://www.w3.org/2000/svg" viewBox="0 0 200 200">
  <circle cx="100" cy="100" r="95" fill="white" stroke="#1a6e3a" stroke-width="6"/>
  <circle cx="100" cy="100" r="82" fill="white" stroke="#1a6e3a" stroke-width="3"/>
  <path d="M 30 90 Q 100 20 170 90" fill="none" stroke="#1a6e3a" stroke-width="2"/>
  <!-- Temple gopuram -->
  <rect x="80" y="45" width="40" height="8" rx="2" fill="#c8960c" stroke="#8b6508" stroke-width="0.5"/>
  <polygon points="100,28 85,45 115,45" fill="#c8960c" stroke="#8b6508" stroke-width="0.5"/>
  <rect x="85" y="53" width="30" height="6" rx="1" fill="#c8960c" stroke="#8b6508" stroke-width="0.5"/>
  <rect x="88" y="59" width="24" height="6" rx="1" fill="#c8960c" stroke="#8b6508" stroke-width="0.5"/>
  <rect x="83" y="65" width="34" height="15" rx="2" fill="#c8960c" stroke="#8b6508" stroke-width="0.5"/>
  <!-- Deity -->
  <ellipse cx="100" cy="95" rx="15" ry="20" fill="#d4380d" opacity="0.8"/>
  <rect x="85" y="80" width="30" height="35" rx="3" fill="#d4380d" stroke="#8b1a04" stroke-width="0.5"/>
  <!-- Chakra left -->
  <circle cx="55" cy="120" r="12" fill="none" stroke="#1a6e3a" stroke-width="2"/>
  <line x1="55" y1="108" x2="55" y2="132" stroke="#1a6e3a" stroke-width="1.5"/>
  <line x1="43" y1="120" x2="67" y2="120" stroke="#1a6e3a" stroke-width="1.5"/>
  <line x1="47" y1="112" x2="63" y2="128" stroke="#1a6e3a" stroke-width="1"/>
  <line x1="63" y1="112" x2="47" y2="128" stroke="#1a6e3a" stroke-width="1"/>
  <!-- Shankha right -->
  <ellipse cx="145" cy="118" rx="10" ry="14" fill="none" stroke="#1a6e3a" stroke-width="2"/>
  <path d="M145,104 Q155,108 148,118" fill="none" stroke="#1a6e3a" stroke-width="2"/>
  <!-- Top text -->
  <path id="topArc" d="M 25 100 A 75 75 0 0 1 175 100" fill="none"/>
  <text font-family="Arial, sans-serif" font-size="11" font-weight="bold" fill="#1a6e3a">
    <textPath href="#topArc" startOffset="50%" text-anchor="middle">TIRUMALA TIRUPATI DEVASTHANAMS</textPath>
  </text>
  <!-- Bottom text -->
  <text x="100" y="165" text-anchor="middle" font-family="Arial, sans-serif" font-size="11" font-weight="bold" fill="#1a6e3a">&#x0C36;&#x0C4D;&#x0C30;&#x0C40;&#x0C28;&#x0C3F;&#x0C35;&#x0C3E;&#x0C38;&#x0C4B; &#x0C35;&#x0C3F;&#x0C1C;&#x0C2F;&#x0C24;&#x0C47;</text>
</svg>